<svg xmlns="http://www.w3.org/2000/svg" fill="none" viewBox="0 0 1920 483">
  <g class="gauge">
    <g class="clip">
      <mask id="a" width="1920" height="483" x="0" y="0" class="a" maskUnits="userSpaceOnUse" style="mask-type:luminance">
        <g class="clip-path">
          <path fill="#fff" d="M1920 0H0v483h1920V0Z" class="mask"/>
        </g>
      </mask>
      <g class="g" mask="url(#a)">
        <g class="meter-g">
          <path fill="#fff" d="M934.088 73.556c-1.405 0-2.658-.259-3.758-.776-1.094-.517-1.963-1.23-2.606-2.138-.643-.908-.977-1.948-1.004-3.122h4.176c.047.79.378 1.429.995 1.92.616.49 1.349.735 2.197.735.676 0 1.273-.15 1.79-.447a3.201 3.201 0 0 0 1.223-1.263c.298-.544.447-1.167.447-1.87 0-.715-.152-1.345-.457-1.889a3.233 3.233 0 0 0-1.243-1.272c-.53-.305-1.137-.461-1.82-.468-.596 0-1.176.123-1.74.368-.556.245-.991.58-1.302 1.004l-3.828-.686.964-10.738h12.449v3.52h-8.899l-.527 5.1h.119c.358-.503.898-.921 1.621-1.252.722-.332 1.531-.498 2.426-.498 1.226 0 2.32.289 3.281.866a6.225 6.225 0 0 1 2.277 2.376c.557 1 .832 2.154.826 3.46.006 1.372-.312 2.592-.955 3.66-.636 1.06-1.528 1.895-2.675 2.505-1.14.603-2.466.905-3.977.905Zm18.594.169c-1.71-.007-3.182-.428-4.415-1.263-1.226-.835-2.171-2.045-2.834-3.63-.656-1.583-.981-3.49-.974-5.717 0-2.22.328-4.113.984-5.677.663-1.565 1.608-2.754 2.834-3.57 1.233-.822 2.701-1.233 4.405-1.233 1.703 0 3.168.411 4.395 1.233 1.233.822 2.181 2.015 2.843 3.58.663 1.558.991 3.447.985 5.667 0 2.234-.332 4.143-.994 5.728-.657 1.584-1.598 2.794-2.824 3.629-1.227.835-2.695 1.253-4.405 1.253Zm0-3.57c1.166 0 2.098-.587 2.794-1.76.696-1.173 1.041-2.933 1.034-5.28 0-1.544-.159-2.83-.477-3.858-.312-1.027-.756-1.8-1.333-2.316a2.906 2.906 0 0 0-2.018-.776c-1.16 0-2.088.58-2.784 1.74-.696 1.16-1.048 2.897-1.054 5.21 0 1.565.156 2.87.467 3.918.318 1.04.766 1.823 1.342 2.347a2.943 2.943 0 0 0 2.029.775Zm22.439-.696v-1.074c0-.815.172-1.564.517-2.247a4.09 4.09 0 0 1 1.521-1.65c.67-.418 1.485-.627 2.446-.627.975 0 1.794.206 2.456.617a3.94 3.94 0 0 1 1.512 1.65c.344.683.517 1.435.517 2.257v1.074c0 .816-.173 1.568-.517 2.257a4.025 4.025 0 0 1-1.522 1.64c-.669.419-1.484.627-2.446.627-.974 0-1.793-.209-2.455-.626a4.048 4.048 0 0 1-1.512-1.64 4.972 4.972 0 0 1-.517-2.258Zm2.894-1.074v1.074c0 .47.112.915.338 1.332.232.418.649.627 1.252.627.604 0 1.015-.206 1.233-.617a2.74 2.74 0 0 0 .338-1.342v-1.074c0-.484-.106-.934-.318-1.352-.212-.418-.629-.626-1.253-.626-.596 0-1.01.208-1.242.626a2.74 2.74 0 0 0-.348 1.352Zm-13.344-10.58v-1.073c0-.822.175-1.574.527-2.257.351-.69.858-1.24 1.521-1.65.67-.412 1.478-.617 2.426-.617.981 0 1.803.205 2.466.616a4.032 4.032 0 0 1 1.512 1.65c.344.684.517 1.436.517 2.258v1.074c0 .822-.176 1.574-.527 2.257a4.025 4.025 0 0 1-1.522 1.64c-.663.405-1.478.607-2.446.607-.968 0-1.786-.206-2.456-.617a4.13 4.13 0 0 1-1.511-1.64 4.995 4.995 0 0 1-.507-2.247Zm2.913-1.073v1.074c0 .484.113.931.338 1.342.232.411.64.617 1.223.617.61 0 1.024-.206 1.243-.617a2.74 2.74 0 0 0 .338-1.342v-1.074c0-.484-.106-.935-.318-1.352-.212-.418-.633-.627-1.263-.627-.59 0-.997.212-1.223.637a2.825 2.825 0 0 0-.338 1.342Zm-1.601 16.545 14-20.363h2.605l-14 20.363h-2.605Z" />
          <g class="ellipse-2">
            <path fill="url(#b)" d="M960.5 2367c602.82 0 1091.5-488.68 1091.5-1091.5C2052 672.681 1563.32 184 960.5 184 357.681 184-131 672.681-131 1275.5-131 1878.32 357.681 2367 960.5 2367Z" class="Vector"/>
            <path stroke="#fff" stroke-width="3" d="M960.5 2365.5c601.99 0 1090-488.01 1090-1090s-488.01-1090-1090-1090-1090 488.01-1090 1090 488.01 1090 1090 1090Z" class="Vector"/>
          </g>
          <g class="ellipse">
            <path stroke="#fff" stroke-width="3" d="M960.5 2459.5c653.91 0 1184-530.09 1184-1184 0-653.905-530.09-1184-1184-1184-653.905 0-1184 530.095-1184 1184 0 653.91 530.095 1184 1184 1184Z" class="Vector"/>
          </g>
          <path stroke="#fff" stroke-width="3" d="m342.5 265.5 38 61" />
          <path stroke="#fff" stroke-width="3" d="m635.891 136.5 17.609 64" />
          <path stroke="#fff" stroke-width="3" d="M960 90v61" />
          <path stroke="#fff" stroke-width="3" d="m1572.5 261.5-38 61" />
          <path stroke="#fff" stroke-width="3" d="m1277.11 134.5-17.61 64" />
          <path stroke="#fff" stroke-width="3" d="m472.5 197.5 14 30" />
          <path stroke="#fff" stroke-width="3" d="m799.5 101.5 5 30" />
          <path stroke="#fff" stroke-width="3" d="m1450.5 199.5-14 30" />
          <path stroke="#fff" stroke-width="3" d="m1123.5 103.5-5 30" />
          <path fill="#fff" d="M318.783 255.007c-1.485.85-2.97 1.221-4.455 1.114-1.48-.11-2.903-.685-4.269-1.726-1.36-1.044-2.594-2.532-3.702-4.464-1.111-1.923-1.773-3.726-1.987-5.409-.208-1.686.015-3.189.67-4.508.656-1.329 1.723-2.419 3.198-3.271 1.475-.851 2.949-1.228 4.422-1.129 1.479.095 2.897.654 4.253 1.678 1.353 1.017 2.582 2.489 3.686 4.416 1.117 1.935 1.785 3.754 2.003 5.457.224 1.7.013 3.219-.631 4.555-.644 1.336-1.707 2.432-3.188 3.287Zm-1.785-3.091c1.01-.583 1.523-1.557 1.54-2.921.016-1.364-.566-3.061-1.745-5.09-.772-1.337-1.553-2.371-2.342-3.102-.784-.734-1.554-1.181-2.312-1.34a2.908 2.908 0 0 0-2.136.337c-1.005.58-1.518 1.547-1.541 2.899-.023 1.353.541 3.033 1.692 5.039.782 1.355 1.57 2.408 2.364 3.16.796.742 1.574 1.195 2.335 1.361a2.944 2.944 0 0 0 2.145-.343Zm19.085-11.822-.537-.93a4.912 4.912 0 0 1-.676-2.205 4.106 4.106 0 0 1 .492-2.19c.371-.696.973-1.285 1.805-1.766.844-.487 1.656-.718 2.436-.694a3.942 3.942 0 0 1 2.134.674c.64.419 1.165.984 1.576 1.696l.537.93a4.97 4.97 0 0 1 .681 2.213 4.027 4.027 0 0 1-.497 2.182c-.371.696-.973 1.285-1.806 1.765-.843.488-1.657.716-2.44.686a4.05 4.05 0 0 1-2.129-.665 4.983 4.983 0 0 1-1.576-1.696Zm1.969-2.377.537.93c.235.407.555.736.959.985.409.245.875.217 1.398-.084.522-.302.775-.685.759-1.151a2.742 2.742 0 0 0-.378-1.331l-.537-.93a2.944 2.944 0 0 0-.952-1.012c-.392-.256-.858-.228-1.398.084-.517.298-.771.686-.763 1.164.008.477.133.926.375 1.345Zm-16.846-2.49-.537-.93a4.861 4.861 0 0 1-.672-2.219 4.092 4.092 0 0 1 .492-2.19c.374-.69.972-1.273 1.793-1.747.85-.49 1.664-.723 2.444-.699a4.031 4.031 0 0 1 2.134.674c.64.419 1.165.984 1.576 1.696l.537.93c.411.712.635 1.451.672 2.218a4.027 4.027 0 0 1-.497 2.182c-.372.682-.977 1.264-1.815 1.748s-1.65.715-2.435.694a4.127 4.127 0 0 1-2.129-.665 4.996 4.996 0 0 1-1.563-1.692Zm1.986-2.387.537.93c.242.419.563.75.964.993.406.24.862.214 1.367-.077.528-.305.784-.69.768-1.156a2.742 2.742 0 0 0-.378-1.331l-.537-.93a2.944 2.944 0 0 0-.952-1.012c-.392-.256-.861-.226-1.406.089-.511.295-.758.682-.741 1.162.017.481.143.924.378 1.332Zm6.886 15.129 1.943-24.635 2.256-1.303-1.943 24.636-2.256 1.302Z" />
          <path fill="#fff" d="m1576.28 214.557-10.18 17.635-3.73-2.152 8.14-14.097-.1-.059-5.5.2 1.91-3.307 5.96-.244 3.5 2.024Zm.7 24.435c-1.47-.861-2.54-1.961-3.19-3.301-.64-1.337-.86-2.857-.64-4.56.23-1.7.9-3.513 2.02-5.439 1.11-1.923 2.34-3.398 3.69-4.424 1.36-1.024 2.77-1.582 4.24-1.675 1.48-.095 2.95.283 4.43 1.135 1.47.852 2.54 1.94 3.19 3.265.66 1.328.88 2.836.67 4.522-.2 1.68-.86 3.481-1.98 5.4-1.12 1.935-2.36 3.423-3.72 4.463-1.36 1.044-2.78 1.621-4.26 1.731-1.48.111-2.96-.262-4.45-1.117Zm1.79-3.091c1.01.583 2.11.541 3.3-.128 1.19-.668 2.37-2.019 3.53-4.055.78-1.338 1.28-2.531 1.52-3.58.24-1.045.25-1.936 0-2.672a2.856 2.856 0 0 0-1.36-1.681c-1-.58-2.09-.542-3.28.115-1.18.656-2.35 1.985-3.51 3.985-.79 1.355-1.31 2.564-1.56 3.626-.24 1.061-.25 1.962-.01 2.704.24.736.7 1.298 1.37 1.686Zm14.91 12.73c-1.48-.861-2.54-1.962-3.19-3.301-.65-1.337-.86-2.857-.64-4.56.22-1.7.89-3.513 2.01-5.439 1.11-1.923 2.34-3.398 3.69-4.425 1.36-1.023 2.77-1.581 4.24-1.674 1.48-.095 2.96.283 4.43 1.135 1.48.851 2.54 1.94 3.19 3.265.66 1.328.88 2.835.68 4.522-.21 1.68-.87 3.48-1.99 5.4-1.11 1.935-2.35 3.422-3.72 4.463-1.36 1.044-2.78 1.621-4.26 1.731-1.48.11-2.96-.262-4.44-1.117Zm1.78-3.092c1.01.584 2.11.541 3.3-.127s2.37-2.02 3.54-4.055c.77-1.338 1.28-2.531 1.51-3.58.25-1.046.25-1.936.01-2.673a2.928 2.928 0 0 0-1.36-1.68c-1.01-.581-2.1-.542-3.28.114-1.19.657-2.36 1.985-3.52 3.986-.78 1.354-1.3 2.563-1.55 3.626-.25 1.06-.25 1.962-.02 2.703.25.737.7 1.298 1.37 1.686Zm19.78 10.617.54-.93c.41-.706.93-1.269 1.57-1.687a4.115 4.115 0 0 1 2.15-.669c.78-.027 1.59.2 2.43.68.84.488 1.45 1.075 1.82 1.762.37.691.53 1.419.48 2.185-.04.764-.27 1.502-.68 2.214l-.54.929a5.01 5.01 0 0 1-1.57 1.697c-.64.419-1.36.639-2.14.66-.79.027-1.6-.2-2.43-.681-.85-.487-1.45-1.077-1.82-1.77a4.061 4.061 0 0 1-.49-2.177c.05-.769.28-1.507.68-2.213Zm3.05.517-.54.93c-.23.407-.36.848-.37 1.323-.01.477.25.867.77 1.169.52.301.98.329 1.37.082.41-.243.73-.574.97-.993l.54-.93c.24-.419.37-.863.4-1.33.02-.468-.24-.858-.78-1.169-.51-.299-.98-.325-1.39-.079-.4.245-.73.578-.97.997Zm-6.27-15.834.54-.93c.41-.712.94-1.276 1.58-1.691a4.115 4.115 0 0 1 2.15-.669c.78-.021 1.58.205 2.41.679.84.491 1.45 1.08 1.82 1.767.37.687.53 1.416.49 2.185a5.037 5.037 0 0 1-.68 2.213l-.54.93a4.817 4.817 0 0 1-1.59 1.691 4.02 4.02 0 0 1-2.13.661c-.78.018-1.59-.214-2.43-.698-.83-.484-1.44-1.071-1.81-1.762a4.084 4.084 0 0 1-.49-2.177c.05-.76.27-1.493.68-2.199Zm3.06.527-.54.93c-.24.419-.36.862-.37 1.331-.01.472.24.854.75 1.145.52.305.99.335 1.38.088.4-.243.72-.574.97-.993l.53-.93c.24-.42.38-.863.4-1.331.03-.467-.23-.859-.78-1.174-.51-.295-.97-.315-1.37-.06-.41.255-.73.586-.97.994Zm-9.66 13.528 22.31-10.636 2.25 1.303-22.3 10.635-2.26-1.302Z" />
        </g>
      </g>
    </g>
    <path fill="#DB2777" d="m972.296 482.679-8.867-345.318-3.201-50.105-2.46 50.204L953.906 483l18.39-.321Z" class="handle"/>
  </g>
  <defs>
    <linearGradient id="b" x1="-307.823" x2="2104.39" y1="670.809" y2="284.418" class="b" gradientUnits="userSpaceOnUse">
      <stop stop-color="#0064C1"/>
      <stop offset=".182" stop-color="#33CDD0"/>
      <stop offset=".335" stop-color="#89E39C"/>
      <stop offset=".478" stop-color="#C9DB5E"/>
      <stop offset=".616" stop-color="#E7BD26"/>
      <stop offset=".749" stop-color="#EE9437"/>
      <stop offset=".887" stop-color="#C65B90"/>
      <stop offset="1" stop-color="#981734"/>
    </linearGradient>
  </defs>
</svg>
