<?xml version="1.0" standalone="no"?>
<!DOCTYPE svg PUBLIC "-//W3C//DTD SVG 20010904//EN"
 "http://www.w3.org/TR/2001/REC-SVG-20010904/DTD/svg10.dtd">
<svg version="1.0" xmlns="http://www.w3.org/2000/svg"
 width="539.000000pt" height="539.000000pt" viewBox="0 0 539.000000 539.000000"
 preserveAspectRatio="xMidYMid meet">
<metadata>
Created by potrace 1.14, written by Peter Selinger 2001-2017
</metadata>
<g transform="translate(0.000000,539.000000) scale(0.100000,-0.100000)"
fill="#000000" stroke="none">
<path d="M2624 4343 c14 -196 17 -456 7 -466 -6 -6 -11 -19 -11 -29 0 -26 -27
-66 -76 -114 -44 -43 -93 -58 -158 -47 -33 5 -40 -2 -67 -74 -5 -13 -13 -33
-18 -45 -14 -38 -33 -82 -42 -101 -13 -25 -57 -141 -86 -227 -34 -101 -42
-151 -53 -310 -11 -157 -19 -210 -31 -210 -5 0 -9 -5 -9 -10 0 -27 -49 -62
-94 -67 -44 -5 -136 19 -136 35 0 4 -14 21 -30 39 -17 18 -30 39 -30 47 0 9
-4 16 -9 16 -13 0 -22 60 -28 173 -4 84 -7 97 -22 97 -10 0 -24 -12 -32 -27
-8 -16 -22 -37 -31 -47 -10 -11 -18 -26 -18 -33 0 -7 -3 -13 -8 -13 -4 0 -13
-15 -21 -32 -8 -18 -17 -35 -21 -38 -22 -17 -104 -242 -123 -335 -12 -61 -14
-255 -3 -310 15 -78 82 -224 133 -291 12 -17 23 -36 23 -42 0 -7 4 -12 8 -12
4 0 15 -13 24 -28 10 -16 33 -46 53 -68 64 -69 108 -140 101 -162 -12 -35 -36
-34 -119 8 -44 22 -85 39 -91 37 -6 -2 11 -23 38 -48 26 -24 68 -63 92 -86 24
-24 48 -43 53 -43 5 0 11 -4 13 -8 5 -14 126 -92 142 -92 9 0 16 -4 16 -8 0
-9 89 -52 106 -52 5 0 -3 10 -17 23 -14 12 -36 44 -49 70 -20 43 -22 59 -17
127 4 69 2 83 -17 112 -40 63 -46 73 -72 123 -34 63 -71 163 -90 240 -8 33
-19 76 -24 95 -20 79 -31 183 -29 264 3 76 1 87 -18 103 -67 59 -86 161 -58
322 18 99 35 133 35 69 0 -48 27 -116 74 -189 28 -44 112 -109 141 -109 8 0
15 -4 15 -10 0 -5 7 -10 15 -10 9 0 25 -9 37 -20 24 -22 63 -26 105 -9 74 30
157 76 168 94 17 24 36 204 42 383 2 72 8 132 13 132 4 0 10 21 13 48 7 63 16
114 23 132 3 8 10 38 14 65 22 130 35 161 76 180 18 8 37 15 43 15 18 0 13 18
-6 24 -10 3 5 3 34 0 41 -5 62 -1 97 16 24 13 48 32 54 44 17 37 32 92 32 114
0 12 5 22 10 22 6 0 10 11 10 25 0 53 53 110 104 110 15 0 20 8 21 27 1 15 -2
25 -7 22 -9 -6 -34 43 -26 51 3 3 15 7 27 10 21 4 24 -4 24 -67 0 -9 5 -16 11
-15 6 1 10 -3 9 -9 -1 -5 17 -11 40 -12 33 -2 47 -9 67 -32 14 -17 33 -30 43
-30 9 0 17 -4 17 -10 0 -5 6 -10 13 -10 14 0 67 -43 67 -55 0 -5 7 -16 15 -25
35 -39 113 -181 135 -248 l25 -74 -25 -20 c-14 -11 -25 -25 -25 -32 0 -6 -4
-12 -8 -13 -5 -1 -17 -11 -27 -23 -13 -15 -19 -17 -23 -8 -2 7 -8 10 -12 6 -4
-4 -3 -13 2 -20 19 -24 28 -141 26 -330 l-3 -187 35 -7 c49 -9 70 -32 85 -92
15 -63 4 -82 -45 -82 -18 0 -38 -6 -44 -14 -10 -12 -6 -18 24 -32 40 -19 55
-40 58 -84 4 -56 85 -63 173 -14 22 12 45 19 52 15 35 -21 21 -169 -35 -367
-21 -76 -11 -127 29 -157 28 -21 80 -27 111 -13 23 11 23 -21 -2 -77 -10 -23
-25 -57 -32 -74 -8 -18 -17 -33 -21 -33 -5 0 -8 -5 -8 -12 0 -6 -11 -25 -23
-42 -38 -50 -79 -125 -74 -133 13 -20 -39 -169 -66 -192 -21 -17 -22 -31 -2
-31 8 0 15 5 15 10 0 6 9 10 20 10 11 0 20 5 20 10 0 6 7 10 15 10 14 0 53 18
65 30 3 3 19 12 35 20 17 8 36 21 43 28 7 6 17 12 21 12 10 0 51 35 51 44 0 3
-23 6 -50 5 -28 -1 -56 3 -62 9 -17 17 -1 58 40 101 20 21 60 66 89 98 29 33
66 75 84 94 51 54 129 178 129 205 0 8 5 14 10 14 6 0 10 14 10 30 0 17 4 30
9 30 23 0 31 249 13 365 -7 39 -14 89 -18 113 -3 23 -10 45 -15 48 -5 3 -9 18
-9 35 0 16 -4 37 -9 47 -5 9 -19 49 -31 87 -30 91 -86 215 -98 215 -14 0 -20
-20 -28 -89 -3 -34 -11 -61 -15 -61 -5 0 -9 -6 -9 -14 0 -36 -127 -85 -145
-56 -3 6 -13 10 -22 10 -8 0 -28 15 -44 32 -36 41 -43 96 -29 213 22 178 24
327 5 412 -15 73 -70 204 -87 211 -4 2 -8 9 -8 16 0 7 -16 29 -35 50 -19 21
-35 43 -35 48 0 11 -194 203 -243 241 -21 16 -47 38 -60 50 -12 13 -38 34 -57
47 -35 25 -50 36 -98 78 -15 12 -45 35 -67 50 -22 15 -53 39 -69 55 -16 15
-35 27 -42 27 -7 0 -14 4 -16 8 -4 9 -63 52 -73 52 -3 0 -4 -39 -1 -87z m88
-53 c7 -16 16 -30 19 -30 4 0 9 -13 12 -29 3 -16 13 -36 22 -44 8 -9 15 -25
15 -37 0 -17 -3 -19 -20 -10 -22 12 -80 127 -80 159 0 30 16 26 32 -9z m177
-297 c1 5 6 5 11 2 6 -4 8 -11 4 -16 -8 -14 -34 9 -33 30 0 12 2 11 9 -4 5
-11 9 -16 9 -12z m-432 -379 c-3 -3 -12 -4 -19 -1 -8 3 -5 6 6 6 11 1 17 -2
13 -5z m1350 -756 c-3 -8 -6 -5 -6 6 -1 11 2 17 5 13 3 -3 4 -12 1 -19z"/>
<path d="M1814 3652 c-14 -49 -53 -108 -105 -163 -33 -34 -59 -68 -59 -76 0
-7 -4 -13 -10 -13 -5 0 -10 -11 -10 -24 0 -14 -4 -28 -10 -31 -10 -6 -15 -215
-5 -215 8 0 115 108 115 116 0 4 8 14 18 23 22 21 42 57 42 76 0 8 5 15 10 15
6 0 10 11 10 24 0 14 4 27 9 30 13 8 23 69 26 163 3 65 1 83 -11 87 -9 3 -17
-1 -20 -12z m-4 -151 c0 -22 -4 -43 -10 -46 -5 -3 -10 -17 -10 -30 0 -13 -4
-27 -10 -30 -5 -3 -10 1 -10 9 0 9 -4 16 -8 16 -15 0 -71 -61 -84 -91 -7 -16
-16 -29 -20 -29 -15 0 -8 39 12 75 22 39 22 39 72 100 18 22 38 45 43 52 18
22 25 14 25 -26z m-40 -130 c0 -6 -4 -13 -10 -16 -5 -3 -10 1 -10 9 0 9 5 16
10 16 6 0 10 -4 10 -9z"/>
<path d="M1800 2408 c0 -9 13 -31 30 -49 16 -19 30 -37 30 -40 0 -13 83 -50
107 -47 41 5 38 36 -8 80 -32 30 -47 38 -72 36 -18 -1 -44 6 -59 16 -23 15
-28 16 -28 4z"/>
</g>
</svg>
